<svg width="24" height="24" viewBox="0 0 24 24" fill="none" xmlns="http://www.w3.org/2000/svg">
<path fill-rule="evenodd" clip-rule="evenodd" d="M22.5111 21.9809C22.8945 21.9792 23.1288 21.5586 22.9285 21.2316C22.3736 20.3258 21.4521 18.8073 20.9563 17.9119C20.8747 17.7565 20.823 17.5869 20.8037 17.4119C22.9484 13.8922 23.0481 9.46822 21.0642 5.85251C19.0804 2.2368 15.3244 -0.00307404 11.2504 3.16661e-06C5.03811 3.16661e-06 -0.251541 5.34481 0.00925064 11.4046C0.0240116 11.7121 0.0510731 12.0196 0.0928993 12.3221C0.279882 15.7969 2.37114 19.1793 6.18461 20.8918C7.41477 21.4417 8.79992 21.8892 10.1211 21.9267C11.8753 21.9792 13.627 21.9992 15.3911 21.9992H15.4157C17.3813 22.003 20.8837 21.9884 22.5111 21.9809ZM6.48887 12.3646C5.74761 12.3655 5.14572 11.7561 5.14391 11.0029C5.1421 10.2497 5.74106 9.63742 6.48231 9.63466C6.83984 9.63199 7.18355 9.77477 7.43683 10.0312C7.6901 10.2876 7.83188 10.6363 7.83056 10.9996C7.83055 11.7528 7.23012 12.3636 6.48887 12.3646ZM9.88984 11.0013C9.89074 11.7548 10.4924 12.365 11.234 12.3646C11.9756 12.3641 12.5765 11.7531 12.5765 10.9996C12.5751 10.2454 11.973 9.63466 11.2307 9.63466C10.4891 9.63604 9.88893 10.2478 9.88984 11.0013ZM15.9684 12.3646C15.2272 12.3655 14.6253 11.7561 14.6235 11.0029C14.6217 10.2497 15.2206 9.63742 15.9619 9.63466C16.3194 9.63199 16.6631 9.77477 16.9164 10.0312C17.1697 10.2876 17.3114 10.6363 17.3101 10.9996C17.3101 11.7528 16.7097 12.3636 15.9684 12.3646Z" fill="white"/>
</svg>
